<svg width="75" height="75" viewBox="0 0 75 75" fill="none" xmlns="http://www.w3.org/2000/svg">
<circle cx="37.1188" cy="40.7539" r="20.9469" fill="#114763"/>
<path fill-rule="evenodd" clip-rule="evenodd" d="M23.5745 20.2796C23.5745 20.3845 23.5745 20.4897 23.5745 20.5946C21.5075 21.8199 19.7225 23.3949 18.2197 25.3195C16.3899 25.7491 16.285 25.5916 17.9047 24.847C18.9545 23.7971 20.0047 22.7469 21.0546 21.6971C19.1316 22.1377 17.5043 23.1353 16.1722 24.6895C15.9621 24.4794 15.9621 24.2696 16.1722 24.0595C16.7099 23.5754 17.1824 23.0503 17.5897 22.4845C19.4122 21.3188 21.4071 20.5839 23.5745 20.2796Z" fill="#AD6800"/>
<path fill-rule="evenodd" clip-rule="evenodd" d="M56.019 22.1694C56.9066 22.7953 57.6418 23.5828 58.2239 24.5318C58.1713 24.6893 58.119 24.8468 58.0664 25.0043C57.323 23.7913 56.2732 22.9512 54.9165 22.4844C54.5206 22.5946 54.4153 22.8047 54.6015 23.1144C55.4006 24.019 56.293 24.8065 57.2789 25.4768C56.6505 25.6699 56.1254 25.5124 55.704 25.0043C53.9725 23.3257 52.1874 21.6982 50.3491 20.122C52.2784 20.6074 54.1684 21.29 56.019 22.1694Z" fill="#AD6800"/>
<path fill-rule="evenodd" clip-rule="evenodd" d="M16.3298 21.8545C15.7776 23.4606 15.1477 25.0356 14.4399 26.5793C14.5504 25.8331 14.603 25.0979 14.5974 24.3744C14.3873 24.5845 14.1775 24.7943 13.9674 25.0044C13.1305 28.3616 12.9204 28.3616 13.3374 25.0044C14.2824 23.6395 15.2274 22.2744 16.1723 20.9095C16.3985 20.6099 16.6609 20.5576 16.9598 20.752C16.5431 21.009 16.3333 21.3766 16.3298 21.8545Z" fill="#AD6800"/>
<path fill-rule="evenodd" clip-rule="evenodd" d="M60.7432 25.0044C61.1423 25.8775 61.1423 26.7176 60.7432 27.5243C60.7687 26.2098 60.3488 25.0551 59.4832 24.0594C59.3783 24.2169 59.2731 24.3744 59.1682 24.5319C59.3941 25.3694 59.7091 26.1569 60.1132 26.8943C60.0996 27.1828 59.9948 27.3929 59.7982 27.5243C58.9644 25.5465 58.2295 23.5516 57.5933 21.5395C57.6799 20.8017 57.9423 20.8017 58.3807 21.5395C59.3273 22.5944 60.1148 23.7494 60.7432 25.0044Z" fill="#AD6800"/>
<path fill-rule="evenodd" clip-rule="evenodd" d="M19.4792 25.6343C19.8106 25.5874 20.1256 25.6397 20.4242 25.7918C19.3466 26.327 18.4016 27.0093 17.5893 27.8393C16.8475 28.0264 16.1649 28.3414 15.5418 28.7843C14.9994 28.7493 14.9471 28.5918 15.3843 28.3118C19.1623 26.5075 19.0574 26.1925 15.0693 27.3668C15.3843 27.0518 15.6993 26.7368 16.0143 26.4218C17.2403 26.2898 18.395 26.0275 19.4792 25.6343Z" fill="#AD6800"/>
<path fill-rule="evenodd" clip-rule="evenodd" d="M54.1289 26.2643C54.3727 26.0605 54.6877 25.9557 55.0739 25.9494C56.0189 26.1069 56.9638 26.2643 57.9088 26.4218C58.5089 26.8694 59.1388 27.237 59.7987 27.5243C59.7247 27.7124 59.5672 27.8173 59.3263 27.8393C58.6282 27.2515 57.8408 26.9888 56.9638 27.0518C57.6433 27.6541 58.3785 28.1792 59.1688 28.6268C59.0113 28.6794 58.8538 28.7317 58.6963 28.7843C57.046 28.1212 55.5237 27.2815 54.1289 26.2643Z" fill="#AD6800"/>
<path fill-rule="evenodd" clip-rule="evenodd" d="M12.2347 30.3593C11.9928 30.5996 11.8353 30.9146 11.7622 31.3042C11.8611 30.3448 11.8085 29.3998 11.6047 28.4693C11.0465 29.437 10.6789 30.4868 10.5022 31.6192C10.4496 31.1467 10.3973 30.6742 10.3447 30.2018C10.5904 28.572 11.1152 27.0496 11.9197 25.6344C12.2044 25.4111 12.3093 25.0961 12.2347 24.6894C12.429 24.6544 12.5865 24.5496 12.7072 24.3744C12.6549 26.3648 12.4974 28.36 12.2347 30.3593Z" fill="#AD6800"/>
<path fill-rule="evenodd" clip-rule="evenodd" d="M62.0035 25.3194C62.7188 26.6452 63.3488 28.0101 63.8934 29.4143C63.9904 30.1778 63.8852 30.9127 63.5784 31.6192C63.3683 30.6742 63.1585 29.7293 62.9484 28.7843C62.7383 29.774 62.5282 30.719 62.3185 31.6192C61.9446 30.2317 61.7345 28.8142 61.6885 27.3668C61.6897 26.6231 61.7946 25.9409 62.0035 25.3194Z" fill="#AD6800"/>
<path fill-rule="evenodd" clip-rule="evenodd" d="M17.2746 29.0992C16.3297 29.4142 15.6997 30.0442 15.3847 30.9892C12.5104 33.1768 12.3003 33.0193 14.7547 30.5167C14.4397 30.3066 14.1247 30.3066 13.8097 30.5167C13.4365 30.9429 13.0163 31.3105 12.5498 31.6192C12.2464 31.4711 12.2464 31.261 12.5498 30.9892C13.1798 30.4641 13.8097 29.9393 14.4397 29.4142C15.3258 29.3991 16.1656 29.189 16.9596 28.7842C17.1508 28.8233 17.2557 28.9282 17.2746 29.0992Z" fill="#AD6800"/>
<path fill-rule="evenodd" clip-rule="evenodd" d="M60.7434 30.0442C62.0279 31.7323 61.9227 31.8898 60.4284 30.5167C60.1134 30.3066 59.7984 30.3066 59.4834 30.5167C60.3572 31.1669 60.9346 31.9543 61.2159 32.8791C60.2715 32.1962 59.3792 31.4614 58.5385 30.6742C58.117 29.9907 57.5393 29.4659 56.806 29.0993C56.5959 28.8892 56.5959 28.6794 56.806 28.4693C58.0704 29.1304 59.383 29.6555 60.7434 30.0442Z" fill="#AD6800"/>
<path fill-rule="evenodd" clip-rule="evenodd" d="M9.39999 29.0992C9.65198 30.8534 9.96697 32.6385 10.345 34.4541C10.3651 35.0491 10.2076 35.5742 9.87247 36.029C9.37101 31.4765 9.00373 31.5814 8.77 36.344C8.4043 34.9911 8.3517 33.626 8.61251 32.2491C9.02263 31.3435 9.28501 30.3986 9.39999 29.4142C9.39999 29.3093 9.39999 29.2041 9.39999 29.0992Z" fill="#AD6800"/>
<path fill-rule="evenodd" clip-rule="evenodd" d="M58.8535 31.9342C60.1349 32.3333 60.9224 33.1731 61.216 34.4542C61.7933 35.2417 62.371 36.0291 62.9484 36.8166C62.7383 37.0267 62.5285 37.0267 62.3184 36.8166C61.93 36.2915 61.5098 35.819 61.0585 35.3992C60.5595 34.0841 59.8243 32.9293 58.8535 31.9342Z" fill="#AD6800"/>
<path fill-rule="evenodd" clip-rule="evenodd" d="M65.7832 33.8241C65.8818 34.6894 65.7769 35.5295 65.4683 36.3441C65.2582 34.9792 65.0484 33.614 64.8383 32.2492C64.6282 33.5555 64.4181 34.8154 64.2083 36.0291C63.9371 33.8465 63.9371 31.6416 64.2083 29.4143C64.1746 28.8224 64.3321 28.7175 64.6808 29.0993C65.083 30.672 65.4506 32.247 65.7832 33.8241Z" fill="#AD6800"/>
<path fill-rule="evenodd" clip-rule="evenodd" d="M61.6885 33.5092C62.8234 34.1187 63.4534 35.0637 63.5785 36.3441C62.8597 35.5182 62.1248 34.6784 61.3735 33.8242C61.4126 33.633 61.5175 33.5281 61.6885 33.5092Z" fill="#AD6800"/>
<path fill-rule="evenodd" clip-rule="evenodd" d="M15.0703 32.2492C14.1483 33.1259 13.5183 34.1757 13.1803 35.3991C12.5856 35.8527 12.0605 36.3775 11.6053 36.9741C11.5005 36.9215 11.3952 36.8692 11.2904 36.8166C11.9814 35.9677 12.6114 35.0753 13.1803 34.1392C13.0222 33.8176 12.8124 33.765 12.5503 33.9817C11.7295 34.5921 11.1521 35.3796 10.8179 36.3441C10.8226 35.0656 11.4 34.068 12.5503 33.3517C13.4969 33.1838 14.337 32.8162 15.0703 32.2492Z" fill="#AD6800"/>
<path fill-rule="evenodd" clip-rule="evenodd" d="M66.728 34.1392C66.8329 35.819 66.9381 37.4992 67.043 39.179C66.7337 39.7794 66.4187 40.4094 66.0981 41.069C65.9932 40.9641 65.888 40.8589 65.7831 40.754C66.1872 39.8011 66.2921 38.8562 66.0981 37.9191C65.47 38.7538 65.155 39.6988 65.1531 40.754C64.8482 40.0903 64.743 39.3551 64.8381 38.549C65.7522 37.2043 66.3822 35.7343 66.728 34.1392Z" fill="#AD6800"/>
<path fill-rule="evenodd" clip-rule="evenodd" d="M7.82464 33.8242C7.77361 34.4627 7.82621 35.0926 7.98213 35.7141C8.57621 36.9908 9.04869 38.303 9.39959 39.6515C9.34699 40.0191 9.2947 40.3864 9.2421 40.754C8.86222 39.6027 8.44234 38.4476 7.98213 37.2891C7.77203 38.1292 7.77203 38.9689 7.98213 39.809C8.51573 40.461 8.56833 41.1433 8.13963 41.8565C8.64928 42.8748 9.06917 43.9247 9.39959 45.0064C9.34699 45.2688 9.2947 45.5315 9.2421 45.7938C8.95955 44.9144 8.59227 44.0743 8.13963 43.2739C7.84889 44.2876 8.05868 45.2325 8.76961 46.1088C8.66472 46.2137 8.55951 46.3189 8.45462 46.4238C7.83661 45.5 7.31152 44.555 6.87966 43.5889C6.87966 43.484 6.87966 43.3788 6.87966 43.2739C6.79903 41.8999 6.74642 40.5351 6.72217 39.179C6.86013 40.0849 7.17513 40.925 7.66714 41.699C7.71975 41.4889 7.77203 41.2791 7.82464 41.069C7.33136 39.7482 7.12158 38.3834 7.19465 36.9741C7.14268 36.0234 7.19528 35.0785 7.35215 34.1392C7.47279 33.964 7.63029 33.8591 7.82464 33.8242Z" fill="#AD6800"/>
<path fill-rule="evenodd" clip-rule="evenodd" d="M63.2638 37.919C63.9958 38.8561 64.2582 39.906 64.0513 41.0689C63.936 39.8934 63.4112 38.9484 62.4763 38.234C62.6864 39.2839 62.8962 40.3341 63.1063 41.3839C62.6263 40.6286 62.1538 39.8937 61.6888 39.179C61.6888 39.0741 61.6888 38.9689 61.6888 38.864C61.4765 37.8806 61.2142 36.9356 60.9014 36.0291C61.5584 36.8462 62.3459 37.4762 63.2638 37.919Z" fill="#AD6800"/>
<path fill-rule="evenodd" clip-rule="evenodd" d="M13.1798 35.7141C13.4126 35.6729 13.6227 35.7255 13.8098 35.8716C12.9983 36.7067 12.5785 37.7043 12.5498 38.8641C12.0326 39.6837 11.5078 40.5237 10.9748 41.384C10.8699 41.2791 10.7647 41.1739 10.6598 41.069C11.2757 40.3253 11.538 39.4852 11.4473 38.5491C10.784 39.1403 10.3641 39.8752 10.1874 40.754C9.97726 40.2289 9.97726 39.7041 10.1874 39.179C11.19 37.9837 12.1872 36.8286 13.1798 35.7141Z" fill="#AD6800"/>
<path fill-rule="evenodd" clip-rule="evenodd" d="M66.728 48.3137C66.144 49.3755 65.3565 50.3205 64.3655 51.1486C64.2398 51.0768 64.1876 50.9716 64.208 50.8336C64.849 50.1312 65.3738 49.3437 65.783 48.4712C65.6781 48.3137 65.5729 48.1562 65.468 47.9987C64.706 48.7087 64.1286 49.5488 63.7355 50.5186C63.5954 49.1632 64.1201 48.1133 65.3105 47.3687C65.5401 46.1213 65.9077 44.9137 66.413 43.7463C66.2233 43.254 65.961 43.3066 65.6255 43.9038C65.319 44.4998 65.1089 45.1297 64.9955 45.7937C64.7552 44.2585 65.1228 42.8936 66.098 41.6989C66.8029 41.2727 67.2228 40.6427 67.3579 39.8089C67.4924 39.0085 67.5973 39.0611 67.6729 39.9664C67.3951 41.8239 67.1327 43.6613 66.8855 45.4788C67.1737 45.2179 67.3835 44.903 67.5154 44.5338C67.568 44.6913 67.6203 44.8488 67.6729 45.0063C67.186 46.0618 66.871 47.1643 66.728 48.3137Z" fill="#AD6800"/>
<path fill-rule="evenodd" clip-rule="evenodd" d="M40.2689 27.2094C40.2689 27.4195 40.2689 27.6293 40.2689 27.8394C39.7851 28.3197 39.4701 28.9497 39.3239 29.7293C38.7088 30.1265 38.0788 30.4938 37.434 30.8318C37.8019 31.4211 37.6444 31.8936 36.9615 32.2493C36.6966 34.6769 36.2241 34.6769 35.544 32.2493C35.7639 31.1364 36.3939 30.3489 37.434 29.8868C36.3189 29.9438 35.5314 30.5212 35.0716 31.6193C35.0205 30.3977 35.5456 29.4528 36.6465 28.7844C36.8566 28.0495 36.8566 27.3143 36.6465 26.5794C36.586 27.2337 36.4285 27.8636 36.174 28.4694C36.0405 27.1829 35.6206 26.0279 34.9141 25.0045C35.0867 24.3568 35.454 23.8317 36.0165 23.4295C36.1715 23.7599 36.1192 24.0749 35.859 24.3745C37.0462 25.1925 37.9386 26.2427 38.5365 27.5244C38.6414 27.1045 38.7466 26.6843 38.8515 26.2644C39.3602 26.5435 39.8327 26.8585 40.2689 27.2094Z" fill="#F8FAFB"/>
<path fill-rule="evenodd" clip-rule="evenodd" d="M28.6146 33.5092C31.3009 34.4066 33.3483 36.0865 34.7569 38.5491C35.0644 40.9128 35.4317 43.2226 35.8594 45.4789C35.9117 47.0573 35.8591 48.6323 35.7019 50.2038C33.6897 46.4069 30.7499 43.5719 26.8822 41.699C26.7612 41.1645 26.8135 40.6397 27.0397 40.124C27.3216 38.2404 27.5843 36.3505 27.8271 34.4542C27.9015 33.9442 28.1639 33.6292 28.6146 33.5092Z" fill="#F8FAFB"/>
<path fill-rule="evenodd" clip-rule="evenodd" d="M46.8835 38.5491C47.1859 39.713 47.1859 40.8677 46.8835 42.014C43.1949 43.8126 40.4649 46.5426 38.6937 50.2038C38.4836 50.2038 38.3787 50.0989 38.3787 49.8888C38.3066 46.3741 38.6216 42.9092 39.3237 39.4941C39.2834 38.8153 39.4409 38.1853 39.7962 37.6041C41.4908 35.4729 43.6435 34.108 46.2535 33.5092C46.532 35.1799 46.7421 36.8598 46.8835 38.5491Z" fill="#F8FAFB"/>
<path fill-rule="evenodd" clip-rule="evenodd" d="M38.064 35.3992C39.1381 35.3626 39.5583 35.8874 39.3239 36.9741C37.8539 36.9741 36.3841 36.9741 34.9141 36.9741C34.9141 36.449 34.9141 35.9243 34.9141 35.3992C35.9639 35.3992 37.0141 35.3992 38.064 35.3992Z" fill="#F8FAFB"/>
<path fill-rule="evenodd" clip-rule="evenodd" d="M39.0094 37.9192C39.0094 38.3391 39.0094 38.7593 39.0094 39.1792C38.592 41.7643 38.1718 44.3894 37.7494 47.0539C37.7494 48.839 37.7494 50.6237 37.7494 52.4088C37.1336 52.8592 36.6088 52.7543 36.1745 52.0938C36.1745 49.8889 36.1745 47.6839 36.1745 45.479C35.7048 42.7719 35.3898 40.0419 35.2295 37.2892C36.6378 37.1037 37.8978 37.3135 39.0094 37.9192Z" fill="#F8FAFB"/>
<path fill-rule="evenodd" clip-rule="evenodd" d="M50.0336 36.6591C50.7304 38.7396 51.3604 40.8397 51.9236 42.9589C51.9878 43.9096 52.0927 44.8545 52.2386 45.7938C47.7922 45.459 43.9074 46.719 40.5839 49.5737C39.7435 50.1521 39.0612 50.8869 38.5365 51.7787C38.4155 51.2441 38.4678 50.7194 38.694 50.2037C40.9235 46.6629 43.9159 43.9329 47.6712 42.014C47.7591 40.691 47.6016 39.431 47.1987 38.2341C47.1987 37.709 47.1987 37.1842 47.1987 36.6591C48.1437 36.6591 49.0887 36.6591 50.0336 36.6591Z" fill="#F8FAFB"/>
<path fill-rule="evenodd" clip-rule="evenodd" d="M26.7249 39.179C26.3664 40.0623 26.3138 41.0073 26.5674 42.014C30.9168 44.1052 34.0141 47.3603 35.8596 51.7787C35.2381 50.9474 34.5033 50.2122 33.6547 49.5738C30.3051 46.8125 26.4203 45.5526 22 45.7939C22.0602 44.6089 22.2703 43.4538 22.63 42.329C22.8618 40.5187 23.2294 38.7336 23.7325 36.9741C24.8015 36.673 25.904 36.5681 27.0399 36.6591C27.0162 37.5115 26.9113 38.3516 26.7249 39.179Z" fill="#F8FAFB"/>
<path fill-rule="evenodd" clip-rule="evenodd" d="M40.8989 49.5738C44.394 47.2026 48.2788 46.0478 52.5536 46.1089C52.6052 45.2625 52.5526 44.4224 52.3961 43.589C52.3085 43.3004 52.151 43.0907 51.9236 42.959C51.9236 42.329 51.9236 41.699 51.9236 41.069C52.683 40.9547 53.1555 41.2697 53.341 42.014C54.1843 44.4253 54.9195 46.84 55.546 49.2588C50.5732 47.819 45.6909 48.134 40.8989 50.2038C40.5956 50.0557 40.5956 49.8456 40.8989 49.5738Z" fill="#F8FAFB"/>
<path fill-rule="evenodd" clip-rule="evenodd" d="M22.3146 42.329C21.8837 43.5254 21.5687 44.7853 21.3696 46.1089C25.7243 46.0941 29.7143 47.2492 33.3393 49.5738C33.2652 49.7619 33.1077 49.8668 32.8668 49.8888C28.7133 48.4065 24.4609 47.9863 20.1096 48.6288C19.5619 48.923 19.0371 48.923 18.5347 48.6288C18.7895 48.134 18.8947 47.6089 18.8497 47.0539C19.3004 46.6507 19.5105 46.1256 19.4796 45.4789C20.1414 44.1843 20.7188 42.8191 21.2121 41.384C21.5305 41.1204 21.8981 41.0155 22.3146 41.0691C22.3146 41.4889 22.3146 41.9091 22.3146 42.329Z" fill="#F8FAFB"/>
<path fill-rule="evenodd" clip-rule="evenodd" d="M6.25 44.5339C7.15654 46.0194 8.36391 47.2793 9.8724 48.3138C10.2822 48.9129 10.4923 49.5429 10.5024 50.2037C9.97729 49.5737 9.45252 48.9438 8.92743 48.3138C8.85214 49.3208 9.21974 50.1609 10.0299 50.8337C9.925 50.9386 9.8198 51.0438 9.7149 51.1487C8.85844 50.5795 8.22846 49.8446 7.82496 48.9438C7.47658 47.4079 6.9518 45.9378 6.25 44.5339Z" fill="#AD6800"/>
<path fill-rule="evenodd" clip-rule="evenodd" d="M60.7439 48.3138C61.2592 49.9587 61.4167 51.6389 61.2163 53.3537C61.1404 52.4752 60.9303 51.6351 60.5864 50.8337C60.2729 51.8638 60.0106 52.9136 59.7989 53.9836C59.694 53.7213 59.5888 53.4586 59.4839 53.1962C59.9255 51.5888 60.2405 49.9612 60.4289 48.3138C60.5338 47.4737 60.639 47.4737 60.7439 48.3138Z" fill="#AD6800"/>
<path fill-rule="evenodd" clip-rule="evenodd" d="M12.55 39.8089C12.738 39.883 12.8429 40.0404 12.865 40.2814C12.3043 42.1997 11.937 44.1423 11.7625 46.1088C12.1238 45.406 12.4388 44.6708 12.7075 43.9038C12.8124 46.0039 12.9176 48.1036 13.0225 50.2036C13.1834 49.4546 13.3935 48.7194 13.6525 47.9987C13.6858 49.224 13.9482 50.3791 14.4399 51.4636C14.4919 52.4142 14.4393 53.3592 14.2824 54.2985C14.0046 53.2625 13.7948 52.2123 13.6525 51.1486C13.1003 51.9326 13.0477 52.7727 13.495 53.6685C13.379 54.1127 13.1167 54.4277 12.7075 54.6135C9.57553 52.0756 9.36543 52.2857 12.0775 55.2435C12.2876 55.4536 12.2876 55.6634 12.0775 55.8735C11.7219 55.3566 11.2494 55.0416 10.66 54.9285C9.45709 53.6213 8.51212 52.1512 7.82512 50.5186C7.80465 50.3807 7.85693 50.2755 7.98262 50.2036C8.60031 51.0336 9.38779 51.6113 10.345 51.9361C11.2129 52.475 11.948 53.1576 12.55 53.9835C12.6549 53.826 12.7601 53.6685 12.865 53.511C12.4892 51.2699 12.2268 49.0127 12.0775 46.7387C11.5263 47.6037 11.2113 48.5487 11.1325 49.5737C11.0799 49.2061 11.0276 48.8388 10.975 48.4712C11.2954 47.4598 11.2954 46.4622 10.975 45.4788C11.4488 44.5442 11.554 43.5992 11.29 42.6439C10.7476 43.5192 10.38 44.4642 10.1876 45.4788C9.98218 44.5042 10.0874 43.5592 10.5025 42.6439C11.497 41.9137 12.1796 40.9687 12.55 39.8089Z" fill="#AD6800"/>
<path fill-rule="evenodd" clip-rule="evenodd" d="M66.4134 50.5186C65.5998 51.6202 64.8649 52.7752 64.2085 53.9835C63.6427 54.3908 63.1176 54.8633 62.6335 55.401C62.3185 55.6111 62.0035 55.6111 61.6885 55.401C62.5689 54.8362 63.3564 54.1536 64.051 53.3535C64.2677 53.0915 64.2151 52.8817 63.8935 52.7236C63.2162 53.243 62.5863 53.8204 62.0035 54.456C61.7934 54.6661 61.5836 54.6661 61.3735 54.456C62.0649 53.398 62.905 52.5053 63.8935 51.7786C64.8743 51.5924 65.6618 51.0673 66.2559 50.2036C66.3816 50.2755 66.4339 50.3807 66.4134 50.5186Z" fill="#AD6800"/>
<path fill-rule="evenodd" clip-rule="evenodd" d="M15.3846 52.0937C15.5761 52.9842 15.8911 53.8239 16.3296 54.6136C16.9504 55.5819 17.2128 56.6321 17.1171 57.7635C16.6358 56.8447 16.2159 55.8997 15.8571 54.9286C15.7563 55.8862 15.7563 56.8312 15.8571 57.7635C15.0265 55.8966 14.869 54.0066 15.3846 52.0937Z" fill="#AD6800"/>
<path fill-rule="evenodd" clip-rule="evenodd" d="M58.8538 51.4637C59.2164 53.0859 59.2687 54.7661 59.0113 56.5036C58.8012 56.9235 58.5914 57.3437 58.3813 57.7635C58.8148 53.7446 58.3949 53.6397 57.1214 57.4485C57.0688 57.2384 57.0165 57.0287 56.9639 56.8186C57.586 55.2635 58.1108 53.6885 58.5388 52.0937C58.8028 51.986 58.908 51.7762 58.8538 51.4637Z" fill="#AD6800"/>
<path fill-rule="evenodd" clip-rule="evenodd" d="M61.3733 43.5889C61.7317 44.9169 62.3091 46.1769 63.1057 47.3688C63.3861 48.3787 63.2812 49.3236 62.7907 50.2037C62.3362 45.6175 61.9686 45.6175 61.6883 50.2037C61.3742 48.0089 61.2693 45.8039 61.3733 43.5889Z" fill="#AD6800"/>
<path fill-rule="evenodd" clip-rule="evenodd" d="M61.688 40.4389C62.1935 41.4176 62.8761 42.2577 63.7354 42.9588C64.1292 43.7706 64.2344 44.6103 64.0504 45.4788C62.948 42.1099 62.5278 42.2148 62.7905 45.7938C61.9954 44.0928 61.6278 42.3077 61.688 40.4389Z" fill="#AD6800"/>
<path fill-rule="evenodd" clip-rule="evenodd" d="M10.3449 54.9286C11.0136 55.8931 11.9586 56.3655 13.1798 56.346C13.6472 56.8418 14.1723 57.2617 14.7548 57.606C14.0441 57.4123 13.3093 57.3074 12.5498 57.291C13.4378 58.1021 14.3827 58.837 15.3847 59.4959C14.584 59.4981 13.8488 59.2357 13.1798 58.7084C11.8886 57.4497 10.6287 56.1372 9.3999 54.7711C9.73915 54.623 10.0541 54.6756 10.3449 54.9286Z" fill="#AD6800"/>
<path fill-rule="evenodd" clip-rule="evenodd" d="M18.2196 56.1885C18.5078 56.8985 18.9277 57.5285 19.4796 58.0785C20.1171 58.8256 20.4844 59.6657 20.582 60.5984C19.8472 59.5486 19.112 58.4984 18.3771 57.4485C18.3239 58.8099 18.7964 59.9647 19.7946 60.9134C18.8647 60.6428 18.2873 60.0129 18.0621 59.0235C17.6734 57.7692 17.4636 56.5092 17.4321 55.2436C17.7005 55.5809 17.9629 55.8959 18.2196 56.1885Z" fill="#AD6800"/>
<path fill-rule="evenodd" clip-rule="evenodd" d="M56.6486 54.9286C56.8196 54.9475 56.9245 55.0524 56.9636 55.2436C56.5418 56.9335 56.0693 58.6133 55.5461 60.2834C55.2907 60.7433 55.028 60.8482 54.7586 60.5984C55.4031 59.7379 55.6658 58.7929 55.5461 57.7635C53.1251 61.5324 52.9676 61.4275 55.0736 57.4485C55.7518 56.7259 56.2769 55.8861 56.6486 54.9286Z" fill="#AD6800"/>
<path fill-rule="evenodd" clip-rule="evenodd" d="M64.2084 54.6136C64.4412 54.5724 64.6513 54.625 64.8384 54.7711C63.4099 56.2525 61.9398 57.67 60.4285 59.0235C59.8625 59.4109 59.2325 59.6207 58.5386 59.6535C59.7856 58.9199 60.9407 58.0272 62.0035 56.9761C61.6885 56.766 61.3735 56.766 61.0585 56.9761C60.2603 57.5853 59.4202 58.0055 58.5386 58.236C59.8014 56.817 61.3763 55.9772 63.2634 55.7161C63.6446 55.3888 63.9596 55.0212 64.2084 54.6136Z" fill="#AD6800"/>
<path fill-rule="evenodd" clip-rule="evenodd" d="M52.8682 60.9134C52.5717 61.629 52.1519 62.259 51.6082 62.8033C51.2614 63.2128 50.8415 63.3703 50.3482 63.2758C51.2617 62.5208 51.9966 61.6284 52.5532 60.5984C52.395 60.2768 52.1853 60.2242 51.9232 60.4409C51.4507 60.9134 50.9782 61.3859 50.5057 61.8583C50.2956 61.6482 50.2956 61.4385 50.5057 61.2284C51.6438 60.2446 52.6936 59.1948 53.6556 58.0784C53.3428 58.985 53.0805 59.93 52.8682 60.9134Z" fill="#AD6800"/>
<path fill-rule="evenodd" clip-rule="evenodd" d="M22.9442 60.2834C23.2459 60.7439 23.6132 61.1638 24.0466 61.5433C24.356 61.9399 24.4609 62.3598 24.3616 62.8033C23.4056 61.7418 22.3558 60.7968 21.2117 59.9684C20.8671 59.4713 20.6044 58.9462 20.4242 58.3934C20.4038 58.2555 20.4561 58.1503 20.5817 58.0784C21.1219 59.0918 21.9094 59.8266 22.9442 60.2834Z" fill="#AD6800"/>
<path fill-rule="evenodd" clip-rule="evenodd" d="M60.7436 59.3384C61.3354 59.3047 61.4403 59.4622 61.0586 59.8109C59.7019 60.908 58.2321 61.8007 56.6487 62.4883C56.071 62.8014 55.5459 62.8014 55.0737 62.4883C55.0737 62.3834 55.0737 62.2782 55.0737 62.1733C56.4953 62.1456 57.7553 61.6731 58.8536 60.7559C58.5912 60.7033 58.3285 60.651 58.0661 60.5984C57.0831 61.017 56.0858 61.2794 55.0737 61.3859C55.8039 60.7581 56.6436 60.3908 57.5937 60.2834C58.8152 60.4333 59.8654 60.1183 60.7436 59.3384Z" fill="#AD6800"/>
<path fill-rule="evenodd" clip-rule="evenodd" d="M23.5746 63.4333C22.4009 62.9756 21.666 62.1359 21.3696 60.9134C21.4673 60.5234 21.6248 60.5234 21.8421 60.9134C22.4973 61.7213 23.0747 62.5614 23.5746 63.4333Z" fill="#AD6800"/>
<path fill-rule="evenodd" clip-rule="evenodd" d="M23.8896 60.2834C25.3874 61.4479 26.9624 62.4977 28.6145 63.4333C28.9179 63.7051 28.9179 63.9152 28.6145 64.0633C27.6784 63.4944 26.786 62.8644 25.9371 62.1733C25.8379 62.6168 25.9428 63.0367 26.2521 63.4333C26.9347 63.9058 27.6169 64.3782 28.2995 64.8507C27.7382 64.8892 27.2134 64.7317 26.7246 64.3782C26.1995 63.9584 25.6747 63.5382 25.1496 63.1183C25.1991 62.6858 25.1465 62.2656 24.9921 61.8583C24.4245 61.4523 24.0569 60.9272 23.8896 60.2834Z" fill="#AD6800"/>
<path fill-rule="evenodd" clip-rule="evenodd" d="M47.1986 62.1733C47.9873 61.8319 48.7222 61.412 49.4035 60.9133C49.7053 60.7706 49.968 60.5609 50.191 60.2834C49.8367 61.5783 48.9443 62.3658 47.5136 62.6458C44.7628 64.8627 44.6579 64.7052 47.1986 62.1733Z" fill="#AD6800"/>
<path fill-rule="evenodd" clip-rule="evenodd" d="M33.3393 64.6933C31.9281 63.9868 30.4581 63.462 28.9294 63.1184C28.4689 62.8166 28.049 62.4494 27.6694 62.0159C29.3001 62.6314 30.98 63.2614 32.7093 63.9059C32.9868 64.1289 33.1966 64.3916 33.3393 64.6933Z" fill="#AD6800"/>
<path fill-rule="evenodd" clip-rule="evenodd" d="M46.5683 62.1733C45.3754 62.7881 44.4304 63.6808 43.7334 64.8507C43.1459 65.2605 42.5159 65.3657 41.8434 65.1657C42.3433 64.8942 42.8684 64.6841 43.4184 64.5357C43.9728 64.2318 44.078 63.8642 43.7334 63.4332C42.7443 63.8279 41.7993 64.1955 40.8984 64.5357C41.3908 63.9889 41.9159 63.5164 42.4734 63.1183C43.8272 62.9894 45.0872 62.5695 46.2533 61.8583C46.4445 61.8974 46.5494 62.0022 46.5683 62.1733Z" fill="#AD6800"/>
<path fill-rule="evenodd" clip-rule="evenodd" d="M48.4591 62.4883C48.6918 62.447 48.9019 62.4996 49.089 62.6458C48.4931 63.7665 47.6007 64.554 46.4116 65.0082C46.9833 64.1644 47.6656 63.3243 48.4591 62.4883Z" fill="#AD6800"/>
<path fill-rule="evenodd" clip-rule="evenodd" d="M12.8647 59.6534C15.007 59.7224 17.1067 60.2997 19.1646 61.3858C18.3135 61.4025 17.4734 61.245 16.6446 60.9133C16.4345 60.9659 16.2248 61.0182 16.0147 61.0708C16.908 61.8848 17.9578 62.2524 19.1646 62.1733C19.2603 62.3781 19.3652 62.5882 19.4796 62.8033C20.8057 62.968 22.0656 63.3356 23.2595 63.9058C22.5728 64.0377 21.8905 63.9851 21.212 63.7483C20.5061 63.805 20.3486 64.0674 20.7395 64.5357C22.2738 64.605 23.7436 64.8677 25.1494 65.3232C26.1 65.2712 27.045 65.3239 27.9843 65.4807C26.9764 65.5125 26.0314 65.7226 25.1494 66.1107C26.1608 66.4739 27.2107 66.684 28.2993 66.7407C27.8794 66.8456 27.4592 66.9508 27.0394 67.0557C25.0168 66.9987 23.0216 66.736 21.0545 66.2682C20.8835 66.2493 20.7786 66.1444 20.7395 65.9532C24.5024 65.5884 24.5024 65.3261 20.7395 65.1657C19.2862 64.4876 17.8161 63.9102 16.3296 63.4333C16.3791 63.0008 16.3265 62.5806 16.1722 62.1733C15.1087 61.2652 14.0063 60.4254 12.8647 59.6534Z" fill="#AD6800"/>
<path fill-rule="evenodd" clip-rule="evenodd" d="M52.5541 63.1184C53.184 63.1184 53.814 63.1184 54.444 63.1184C55.3962 63.3222 56.3412 63.4271 57.2789 63.4334C56.7582 63.4838 56.3384 63.6936 56.019 64.0634C54.2333 64.9381 52.3433 65.3583 50.3491 65.3233C51.5918 64.945 52.8517 64.5251 54.129 64.0634C53.0817 63.7871 52.0318 63.7345 50.9791 63.9059C51.5508 63.6674 52.0756 63.405 52.5541 63.1184Z" fill="#AD6800"/>
<path fill-rule="evenodd" clip-rule="evenodd" d="M33.6548 63.1184C34.1837 63.5909 34.6035 64.1682 34.9147 64.8508C34.1257 64.6281 33.7058 64.0508 33.6548 63.1184Z" fill="#AD6800"/>
<path fill-rule="evenodd" clip-rule="evenodd" d="M39.9536 63.4333C40.1864 63.392 40.3965 63.4446 40.5836 63.5908C39.346 65.5226 39.1362 65.4703 39.9536 63.4333Z" fill="#AD6800"/>
<path fill-rule="evenodd" clip-rule="evenodd" d="M36.8042 63.1184C37.0143 63.1184 37.2241 63.1184 37.4342 63.1184C37.4342 64.9034 37.4342 66.6882 37.4342 68.4732C37.2241 68.4732 37.0143 68.4732 36.8042 68.4732C36.8042 66.6882 36.8042 64.9034 36.8042 63.1184Z" fill="#EACE84"/>
<path fill-rule="evenodd" clip-rule="evenodd" d="M29.5591 63.7484C30.3544 64.2766 31.1942 64.7491 32.079 65.1658C31.6591 65.3759 31.2389 65.3759 30.819 65.1658C30.1465 64.8899 29.7263 64.4174 29.5591 63.7484Z" fill="#AD6800"/>
<path fill-rule="evenodd" clip-rule="evenodd" d="M36.8045 63.1183C36.8045 64.9034 36.8045 66.6881 36.8045 68.4732C36.4763 68.8798 36.109 68.8798 35.702 68.4732C35.4919 66.6881 35.4919 64.9034 35.702 63.1183C36.109 62.7117 36.4763 62.7117 36.8045 63.1183Z" fill="#AD6800"/>
<path fill-rule="evenodd" clip-rule="evenodd" d="M38.3791 63.1183C38.3791 65.0083 38.3791 66.8982 38.3791 68.7882C37.9724 68.8628 37.6574 68.7579 37.4341 68.4732C37.4341 66.6881 37.4341 64.9034 37.4341 63.1183C37.797 62.764 38.1119 62.764 38.3791 63.1183Z" fill="#AD6800"/>
<path fill-rule="evenodd" clip-rule="evenodd" d="M50.3484 65.3232C50.917 65.8578 51.6522 66.1201 52.5533 66.1107C50.3075 67.028 47.9976 67.2907 45.6235 66.8982C46.8826 66.7196 48.1425 66.4572 49.4034 66.1107C48.3674 65.8329 47.3172 65.6231 46.2535 65.4807C47.6146 65.3235 48.9795 65.2709 50.3484 65.3232Z" fill="#AD6800"/>
<path fill-rule="evenodd" clip-rule="evenodd" d="M31.7646 68.1582C30.6095 68.1582 29.4548 68.1582 28.2997 68.1582C27.4596 68.1582 26.6199 68.1582 25.7798 68.1582C27.5466 67.6706 29.279 67.0406 30.9771 66.2682C31.3447 66.3209 31.712 66.3731 32.0796 66.4257C31.4084 66.5968 30.7784 66.8592 30.1897 67.2132C30.452 67.3181 30.7148 67.4233 30.9771 67.5282C31.7788 67.2923 32.5663 67.1348 33.3396 67.0557C32.8813 67.5679 32.3562 67.9352 31.7646 68.1582Z" fill="#AD6800"/>
<path fill-rule="evenodd" clip-rule="evenodd" d="M33.3394 68.4732C33.6543 68.0533 33.9693 67.6331 34.2843 67.2132C34.3735 66.9647 34.531 66.7546 34.7568 66.5832C34.8242 67.5988 34.3517 68.2288 33.3394 68.4732Z" fill="#AD6800"/>
<path fill-rule="evenodd" clip-rule="evenodd" d="M45.6233 66.8983C45.6139 67.2123 45.7714 67.4224 46.0958 67.5282C46.9365 67.6908 47.724 67.9009 48.4582 68.1582C48.0383 68.1582 47.6181 68.1582 47.1983 68.1582C45.5184 68.1582 43.8383 68.1582 42.1584 68.1582C41.7599 67.8498 41.3397 67.5349 40.8984 67.2132C41.0033 67.1084 41.1085 67.0031 41.2134 66.8983C42.0841 67.5623 43.029 67.6672 44.0483 67.2132C43.3327 66.903 42.5978 66.6403 41.8434 66.4258C43.1541 66.2157 44.4141 66.3732 45.6233 66.8983Z" fill="#AD6800"/>
<path fill-rule="evenodd" clip-rule="evenodd" d="M39.3237 66.5832C39.76 66.9215 40.1273 67.3414 40.4262 67.8432C40.6429 68.1053 40.5903 68.3151 40.2687 68.4732C39.7842 67.9242 39.4693 67.2942 39.3237 66.5832Z" fill="#AD6800"/>
<path d="M36.9621 4.68747L38.5886 9.6935L43.8523 9.6935L39.5939 12.7874L41.2205 17.7934L36.9621 14.6995L32.7037 17.7934L34.3303 12.7874L30.0719 9.6935L35.3355 9.6935L36.9621 4.68747Z" fill="#AD6800"/>
<path d="M47.3559 11.9323L47.9924 13.8912H50.0521L48.3858 15.1019L49.0222 17.0607L47.3559 15.8501L45.6896 17.0607L46.3261 15.1019L44.6597 13.8912H46.7194L47.3559 11.9323Z" fill="#AD6800"/>
<path d="M26.8818 11.9323L27.5183 13.8912H29.578L27.9116 15.1019L28.5481 17.0607L26.8818 15.8501L25.2155 17.0607L25.852 15.1019L24.1856 13.8912H26.2453L26.8818 11.9323Z" fill="#AD6800"/>
</svg>
